# xmcd
#
# Track frame offsets:
#	150
#	19357
#	34841
#	50991
#	67956
#	83581
#	101508
#	121355
#	139635
#	158810
#	172592
#	191238
#	209686
#
# Disc length: 3001 seconds
# Revision: 0
# Processed by: cddbd v1.5.2PL0 Copyright (c) Steve Scherf et al.
# Submitted via: dBpowerAMP V12.0
#
DISCID=b30bb70d
DTITLE=Alan Jackson - Like Red On A Rose
DYEAR=2007
DGENRE=Country
TTITLE0=Anywhere On Earth You Are
TTITLE1=Good Imitation Of The Blues
TTITLE2=Like Red On A Rose
TTITLE3=Nobody Said That It Would Be Easy
TTITLE4=Don't Change On Me
TTITLE5=The Firefly's Song
TTITLE6=Wait A Minute
TTITLE7=Had It Not Been You
TTITLE8=A Woman's Love
TTITLE9=Don't Ask Why
TTITLE10=As Lovely As You
TTITLE11=Where Do I Go From Here (A Truckers Song)
TTITLE12=Bluebird
EXTD=
EXTT0=
EXTT1=
EXTT2=
EXTT3=
EXTT4=
EXTT5=
EXTT6=
EXTT7=
EXTT8=
EXTT9=
EXTT10=
EXTT11=
EXTT12=
PLAYORDER=
